<?xml version="1.0" encoding="UTF-8"?>
<svg id="_레이어_1" data-name="레이어 1" xmlns="http://www.w3.org/2000/svg" viewBox="0 0 1024 1024">
  <defs>
    <style>
      .cls-1 {
        fill: #fff;
      }
    </style>
  </defs>
  <path class="cls-1" d="M696.82,841.23c54.55-18.06,106.34-47.46,151.78-88.38,175.85-158.35,190.04-429.28,31.69-605.13-64.27-71.37-147.07-116.11-234.54-133.5,50.97,21.01,98.15,53.48,137.5,97.18,131.95,146.54,129.05,367.38-.74,510.31L520.51,9.51l-257.52,601.47c-60.9-74.01-76.61-161.42-74.11-251.43,3.61-129.9,93.02-260.37,200.17-345.33C178.3,77.07,24.65,272.35,24.65,503.52c0,281.95,228.57,510.52,510.52,510.52,209.48,0,389.49-126.17,468.18-306.66-79.43,78.67-187.14,128.83-306.53,133.85ZM520.51,317.74l66.52,167.54h-133.03l66.52-167.54ZM374.5,701.33l41.48-99.31h209.05l44,105.34c-91.97,44.46-196.3,43.82-294.54-6.03Z"/>
</svg>